{
	"asset":{
		"version":"2.0",
		"generator":"Maxon Cinema 4D 2025.1.1 (#200000219)"
	},
	"scenes":[{
		"nodes":[0,
		1,
		2,
		3]
	}],
	"nodes":[{
		"name":"Null",
		"translation":[0.0,
		0.0,
		0.0],
		"rotation":[0.0,
		0.0,
		0.0,
		-1.0],
		"scale":[-1.0,
		1.0,
		-1.0],
		"children":[4]
	},
	{
		"name":"DIce_1_Pos",
		"translation":[-0.16666388511657716,
		0.10947169363498688,
		0.0706826001405716],
		"rotation":[0.0,
		0.0,
		0.0,
		-1.0],
		"scale":[1.0,
		1.0,
		1.0],
		"children":[5]
	},
	{
		"name":"OctaneCamera",
		"camera":0,
		"translation":[0.0,
		3.5999999046325685,
		0.0],
		"rotation":[0.7071067690849304,
		0.0,
		0.0,
		-0.7071067690849304],
		"scale":[1.0,
		1.0,
		1.0]
	},
	{
		"name":"Plane",
		"mesh":0
	},
	{
		"name":"DIce_2_Pos",
		"translation":[-0.16003720462322236,
		0.10635940730571747,
		0.048186466097831729],
		"rotation":[0.0,
		0.0,
		0.0,
		-1.0],
		"scale":[1.0,
		1.0,
		1.0],
		"children":[6]
	},
	{
		"name":"Dice_1_Rot",
		"translation":[0.0,
		0.0,
		0.0],
		"rotation":[0.6865523457527161,
		0.6865523457527161,
		-0.16925081610679627,
		-0.16925081610679627],
		"scale":[1.0,
		1.0,
		1.0],
		"children":[7]
	},
	{
		"name":"Dice_2_Rot",
		"translation":[0.0,
		0.0,
		0.0],
		"rotation":[0.0,
		-0.3705533444881439,
		0.0,
		-0.9288111925125122],
		"scale":[1.0,
		1.0,
		1.0],
		"children":[8]
	},
	{
		"name":"Dice_1",
		"mesh":1
	},
	{
		"name":"Dice_2",
		"mesh":2
	}],
	"meshes":[{
		"name":"Plane",
		"primitives":[{
			"attributes":{
				"POSITION":3,
				"NORMAL":4,
				"TEXCOORD_0":5
			},
			"indices":2
		}]
	},
	{
		"name":"Dice_1",
		"primitives":[{
			"attributes":{
				"POSITION":13,
				"NORMAL":14,
				"TEXCOORD_0":15
			},
			"indices":12
		}]
	},
	{
		"name":"Dice_2",
		"primitives":[{
			"attributes":{
				"POSITION":17,
				"NORMAL":18,
				"TEXCOORD_0":19
			},
			"indices":16
		}]
	}],
	"cameras":[{
		"type":"perspective",
		"perspective":{
			"znear":0.009999999776482582,
			"zfar":10000000000.0,
			"aspectRatio":1.0,
			"yfov":0.2651030719280243
		}
	}],
	"accessors":[{
		"bufferView":0,
		"min":[0.0],
		"type":"SCALAR",
		"componentType":5126,
		"count":7,
		"byteOffset":0,
		"max":[2.4000000953674318]
	},
	{
		"bufferView":0,
		"min":[-0.18000000715255738,
		0.0,
		-0.011074126698076725],
		"type":"VEC3",
		"componentType":5126,
		"count":21,
		"byteOffset":28,
		"max":[0.0,
		1.0847997665405274,
		0.0706826001405716]
	},
	{
		"bufferView":1,
		"min":[0],
		"type":"SCALAR",
		"componentType":5123,
		"count":600,
		"byteOffset":0,
		"max":[599]
	},
	{
		"bufferView":2,
		"min":[-2.0,
		0.0,
		-2.0],
		"type":"VEC3",
		"componentType":5126,
		"count":600,
		"byteOffset":0,
		"max":[2.0,
		0.0,
		2.0]
	},
	{
		"bufferView":2,
		"min":[0.0,
		1.0,
		0.0],
		"type":"VEC3",
		"componentType":5126,
		"count":600,
		"byteOffset":12,
		"max":[0.0,
		1.0,
		0.0]
	},
	{
		"bufferView":2,
		"min":[0.0,
		0.0],
		"type":"VEC2",
		"componentType":5126,
		"count":600,
		"byteOffset":24,
		"max":[1.0,
		1.0]
	},
	{
		"bufferView":3,
		"min":[0.0],
		"type":"SCALAR",
		"componentType":5126,
		"count":7,
		"byteOffset":0,
		"max":[2.4000000953674318]
	},
	{
		"bufferView":3,
		"min":[-0.1899999976158142,
		0.0,
		-0.03254919499158859],
		"type":"VEC3",
		"componentType":5126,
		"count":21,
		"byteOffset":28,
		"max":[0.0,
		1.0,
		0.07373414933681488]
	},
	{
		"bufferView":4,
		"min":[0.0],
		"type":"SCALAR",
		"componentType":5126,
		"count":8,
		"byteOffset":0,
		"max":[2.4000000953674318]
	},
	{
		"bufferView":4,
		"min":[-0.30649739503860476,
		-0.9455220103263855,
		-0.16925081610679627,
		-0.28377702832221987],
		"type":"VEC4",
		"componentType":5126,
		"count":8,
		"byteOffset":32,
		"max":[0.9029501080513,
		0.8158366084098816,
		0.9084720015525818,
		0.38447052240371706]
	},
	{
		"bufferView":5,
		"min":[0.0],
		"type":"SCALAR",
		"componentType":5126,
		"count":10,
		"byteOffset":0,
		"max":[2.4000000953674318]
	},
	{
		"bufferView":5,
		"min":[-0.4650072157382965,
		-0.8836190104484558,
		-3.418343402837843e-17,
		-0.9288111925125122],
		"type":"VEC4",
		"componentType":5126,
		"count":10,
		"byteOffset":40,
		"max":[0.24119333922863007,
		-0.3705533444881439,
		0.650924801826477,
		0.6138780117034912]
	},
	{
		"bufferView":6,
		"min":[0],
		"type":"SCALAR",
		"componentType":5123,
		"count":996,
		"byteOffset":0,
		"max":[995]
	},
	{
		"bufferView":7,
		"min":[-0.10000000149011612,
		-0.10000000149011612,
		-0.10000000149011612],
		"type":"VEC3",
		"componentType":5126,
		"count":996,
		"byteOffset":0,
		"max":[0.10000000149011612,
		0.10000000149011612,
		0.10000000149011612]
	},
	{
		"bufferView":7,
		"min":[-0.9904966950416565,
		-0.9917945861816406,
		-0.990496814250946],
		"type":"VEC3",
		"componentType":5126,
		"count":996,
		"byteOffset":12,
		"max":[0.9904966950416565,
		0.9917945861816406,
		0.990496814250946]
	},
	{
		"bufferView":7,
		"min":[0.0,
		0.0],
		"type":"VEC2",
		"componentType":5126,
		"count":996,
		"byteOffset":24,
		"max":[1.0,
		1.0]
	},
	{
		"bufferView":8,
		"min":[0],
		"type":"SCALAR",
		"componentType":5123,
		"count":996,
		"byteOffset":0,
		"max":[995]
	},
	{
		"bufferView":9,
		"min":[-0.10000000149011612,
		-0.10000000149011612,
		-0.10000000149011612],
		"type":"VEC3",
		"componentType":5126,
		"count":996,
		"byteOffset":0,
		"max":[0.10000000149011612,
		0.10000000149011612,
		0.10000000149011612]
	},
	{
		"bufferView":9,
		"min":[-0.9904966950416565,
		-0.9917945861816406,
		-0.990496814250946],
		"type":"VEC3",
		"componentType":5126,
		"count":996,
		"byteOffset":12,
		"max":[0.9904966950416565,
		0.9917945861816406,
		0.990496814250946]
	},
	{
		"bufferView":9,
		"min":[0.0,
		0.0],
		"type":"VEC2",
		"componentType":5126,
		"count":996,
		"byteOffset":24,
		"max":[1.0,
		1.0]
	}],
	"bufferViews":[{
		"buffer":0,
		"byteOffset":0,
		"byteLength":280
	},
	{
		"buffer":1,
		"byteOffset":0,
		"byteLength":1200,
		"target":34963
	},
	{
		"buffer":1,
		"byteOffset":1200,
		"byteLength":19200,
		"target":34962,
		"byteStride":32
	},
	{
		"buffer":2,
		"byteOffset":0,
		"byteLength":280
	},
	{
		"buffer":3,
		"byteOffset":0,
		"byteLength":160
	},
	{
		"buffer":4,
		"byteOffset":0,
		"byteLength":200
	},
	{
		"buffer":5,
		"byteOffset":0,
		"byteLength":1992,
		"target":34963
	},
	{
		"buffer":5,
		"byteOffset":1992,
		"byteLength":31872,
		"target":34962,
		"byteStride":32
	},
	{
		"buffer":6,
		"byteOffset":0,
		"byteLength":1992,
		"target":34963
	},
	{
		"buffer":6,
		"byteOffset":1992,
		"byteLength":31872,
		"target":34962,
		"byteStride":32
	}],
	"buffers":[{
		"uri":"data:application/octet-stream;base64,",
		"byteLength":280
	},
	{
		"uri":"data:application/octet-stream;base64,",
		"byteLength":20400
	},
	{
		"uri":"data:application/octet-stream;base64,",
		"byteLength":280
	},
	{
		"uri":"data:application/octet-stream;base64,",
		"byteLength":160
	},
	{
		"uri":"data:application/octet-stream;base64,",
		"byteLength":200
	},
	{
		"uri":"data:application/octet-stream;base64,",
		"byteLength":33864
	},
	{
		"uri":"data:application/octet-stream;base64,",
		"byteLength":33864
	}],
	"animations":[{
		"samplers":[{
			"input":0,
			"interpolation":"CUBICSPLINE",
			"output":1
		},
		{
			"input":6,
			"interpolation":"CUBICSPLINE",
			"output":7
		},
		{
			"input":8,
			"interpolation":"LINEAR",
			"output":9
		},
		{
			"input":10,
			"interpolation":"LINEAR",
			"output":11
		}],
		"channels":[{
			"sampler":0,
			"target":{
				"node":1,
				"path":"translation"
			}
		},
		{
			"sampler":1,
			"target":{
				"node":4,
				"path":"translation"
			}
		},
		{
			"sampler":2,
			"target":{
				"node":5,
				"path":"rotation"
			}
		},
		{
			"sampler":3,
			"target":{
				"node":6,
				"path":"rotation"
			}
		}]
	}]
}